<svg width="43" height="38" viewBox="0 0 43 38" fill="none" xmlns="http://www.w3.org/2000/svg">
<g clip-path="url(#clip0_1_13)">
<path d="M29.7606 29.238C28.8389 29.0553 28.2366 28.1643 28.4177 27.2521C28.5993 26.3387 29.4965 25.7451 30.4182 25.9278C30.6416 25.972 30.8735 25.9267 31.0615 25.8024C31.2509 25.677 31.3819 25.4825 31.4258 25.2613L32.0212 22.2587C32.5254 19.7208 30.8487 17.2425 28.2845 16.7342L8.64011 12.8395C6.07607 12.3312 3.57898 13.982 3.07477 16.5199L2.45794 19.6188C2.41401 19.8399 2.46054 20.0697 2.58769 20.2578C2.71395 20.4445 2.91093 20.5748 3.13433 20.6191C4.08742 20.8081 4.67277 21.6205 4.49616 22.5095C4.31491 23.4218 3.41755 24.0154 2.49589 23.8327C2.03113 23.7405 1.57977 24.039 1.48837 24.4991L0.892321 27.4992C0.388107 30.0372 2.06351 32.5164 4.62867 33.025L24.2753 36.92C26.8405 37.4286 29.3368 35.7764 29.8409 33.2385L30.437 30.2382C30.5284 29.7783 30.2254 29.3301 29.7606 29.238Z" fill="#C5CBEB"/>
<path d="M34.3958 28.2134C33.7431 27.5381 33.757 26.4631 34.4267 25.817C35.0973 25.1701 36.1732 25.1939 36.8259 25.869C36.9842 26.0328 37.2005 26.1276 37.426 26.1327C37.6532 26.1376 37.8718 26.0523 38.0341 25.8957L40.2375 23.7686C42.1007 21.9712 42.1385 18.9802 40.3226 17.1018L26.4103 2.7101C24.5944 0.831669 21.6009 0.764912 19.7376 2.56228L17.4617 4.75624C17.2993 4.91284 17.2063 5.12812 17.2034 5.35504C17.2005 5.58035 17.2878 5.7996 17.4461 5.96327C18.121 6.6615 18.138 7.66233 17.4854 8.29194C16.8156 8.93802 15.7397 8.91435 15.0868 8.23912C14.7578 7.89865 14.2166 7.88664 13.8788 8.21248L11.6762 10.3372C9.81303 12.1346 9.77368 15.1256 11.5903 17.0048L25.5042 31.3981C27.3208 33.2774 30.3145 33.3426 32.1777 31.5452L34.3803 29.4204C34.718 29.0946 34.725 28.5538 34.3958 28.2134Z" fill="#3F51B5"/>
<path fill-rule="evenodd" clip-rule="evenodd" d="M17.4616 4.75624L19.7375 2.56229C21.6008 0.764919 24.5943 0.831676 26.4102 2.71009L40.3225 17.1018C42.1384 18.9802 42.1006 21.9712 40.2374 23.7686L38.034 25.8957C37.8717 26.0523 37.6531 26.1376 37.4259 26.1326C37.2004 26.1277 36.9841 26.0328 36.8258 25.869C36.1731 25.1939 35.0972 25.1701 34.4266 25.817C33.7569 26.4631 33.743 27.5381 34.3957 28.2134C34.7249 28.5539 34.7179 29.0946 34.3801 29.4204L32.1776 31.5452C30.3144 33.3425 27.3206 33.2774 25.5041 31.3982L11.5902 17.0048C9.77357 15.1256 9.81292 12.1346 11.6761 10.3372L13.8787 8.21249C14.2165 7.88665 14.7577 7.89865 15.0869 8.23913C15.7396 8.91436 16.8155 8.93803 17.4853 8.29195C18.1379 7.66233 18.1209 6.6615 17.446 5.96326C17.2877 5.7996 17.2004 5.58035 17.2033 5.35504C17.2062 5.12812 17.2992 4.91285 17.4616 4.75624ZM41.8274 25.4134L39.6247 27.54C39.0209 28.1224 38.2102 28.437 37.3754 28.4187C37.2134 28.4151 37.0531 28.3991 36.8958 28.3712C37.0313 29.3274 36.7269 30.3352 35.9702 31.0652L33.7676 33.1899C30.9811 35.8781 26.5387 35.7602 23.8575 32.9865L9.94364 18.5932C7.26237 15.8196 7.29952 11.3805 10.0861 8.69233L12.2887 6.56762C13.0238 5.85842 14.0066 5.58474 14.9348 5.72429C14.9196 5.59277 14.9128 5.45963 14.9145 5.32561C14.9253 4.4916 15.2677 3.69381 15.8715 3.11138L18.1475 0.917435C20.9348 -1.77081 25.3773 -1.65017 28.0568 1.1217L41.9691 15.5134C44.6486 18.2852 44.6142 22.7245 41.8274 25.4134Z" fill="white"/>
</g>
<defs>
<clipPath id="clip0_1_13">
<rect width="43" height="38" fill="white"/>
</clipPath>
</defs>
</svg>
