<svg width="105" height="16" viewBox="0 0 105 16" fill="none" xmlns="http://www.w3.org/2000/svg">
<path d="M13.28 0.96L8.42 10.36L8.42 15L5 15L5 10.36L0.14 0.96L4.02 0.96L6.74 6.84L9.44 0.96L13.28 0.96ZM19.738 15.16C18.6446 15.16 17.658 14.9267 16.778 14.46C15.9113 13.9933 15.2246 13.3267 14.718 12.46C14.2246 11.5933 13.978 10.58 13.978 9.42C13.978 8.27333 14.2313 7.26667 14.738 6.4C15.2446 5.52 15.938 4.84667 16.818 4.38C17.698 3.91333 18.6846 3.68 19.778 3.68C20.8713 3.68 21.858 3.91333 22.738 4.38C23.618 4.84667 24.3113 5.52 24.818 6.4C25.3246 7.26667 25.578 8.27333 25.578 9.42C25.578 10.5667 25.318 11.58 24.798 12.46C24.2913 13.3267 23.5913 13.9933 22.698 14.46C21.818 14.9267 20.8313 15.16 19.738 15.16ZM19.738 12.2C20.3913 12.2 20.9446 11.96 21.398 11.48C21.8646 11 22.098 10.3133 22.098 9.42C22.098 8.52667 21.8713 7.84 21.418 7.36C20.978 6.88 20.4313 6.64 19.778 6.64C19.1113 6.64 18.558 6.88 18.118 7.36C17.678 7.82667 17.458 8.51333 17.458 9.42C17.458 10.3133 17.6713 11 18.098 11.48C18.538 11.96 19.0846 12.2 19.738 12.2ZM38.4123 3.84L38.4123 15L34.9923 15V13.48C34.6457 13.9733 34.1723 14.3733 33.5723 14.68C32.9857 14.9733 32.3323 15.12 31.6123 15.12C30.759 15.12 30.0057 14.9333 29.3523 14.56C28.699 14.1733 28.1923 13.62 27.8323 12.9C27.4723 12.18 27.2923 11.3333 27.2923 10.36V3.84H30.6923V9.9C30.6923 10.6467 30.8857 11.2267 31.2723 11.64C31.659 12.0533 32.179 12.26 32.8323 12.26C33.499 12.26 34.0257 12.0533 34.4123 11.64C34.799 11.2267 34.9923 10.6467 34.9923 9.9L34.9923 3.84H38.4123ZM44.2889 5.7C44.6889 5.08667 45.1889 4.60667 45.7889 4.26C46.3889 3.9 47.0556 3.72 47.7889 3.72V7.34L46.8489 7.34C45.9956 7.34 45.3556 7.52667 44.9289 7.9C44.5022 8.26 44.2889 8.9 44.2889 9.82V15H40.8689L40.8689 3.84H44.2889V5.7Z" fill="white"/>
<path d="M52.8436 3.7V6.54L57.4236 6.54L57.4236 9.18H52.8436V12.26H58.0236V15L49.4236 15L49.4236 0.96L58.0236 0.96V3.7L52.8436 3.7ZM65.2639 11.8L67.6839 3.84L71.3239 3.84L67.3639 15L63.1439 15L59.1839 3.84L62.8439 3.84L65.2639 11.8ZM83.2834 9.24C83.2834 9.56 83.2634 9.89333 83.2234 10.24L75.4834 10.24C75.5368 10.9333 75.7568 11.4667 76.1434 11.84C76.5434 12.2 77.0301 12.38 77.6034 12.38C78.4568 12.38 79.0501 12.02 79.3834 11.3L83.0234 11.3C82.8368 12.0333 82.4968 12.6933 82.0034 13.28C81.5234 13.8667 80.9168 14.3267 80.1834 14.66C79.4501 14.9933 78.6301 15.16 77.7234 15.16C76.6301 15.16 75.6568 14.9267 74.8034 14.46C73.9501 13.9933 73.2834 13.3267 72.8034 12.46C72.3234 11.5933 72.0834 10.58 72.0834 9.42C72.0834 8.26 72.3168 7.24667 72.7834 6.38C73.2634 5.51333 73.9301 4.84667 74.7834 4.38C75.6368 3.91333 76.6168 3.68 77.7234 3.68C78.8034 3.68 79.7634 3.90667 80.6034 4.36C81.4434 4.81333 82.0968 5.46 82.5634 6.3C83.0434 7.14 83.2834 8.12 83.2834 9.24ZM79.7834 8.34C79.7834 7.75333 79.5834 7.28667 79.1834 6.94C78.7834 6.59333 78.2834 6.42 77.6834 6.42C77.1101 6.42 76.6234 6.58667 76.2234 6.92C75.8368 7.25333 75.5968 7.72667 75.5034 8.34L79.7834 8.34ZM91.8877 3.72C93.1943 3.72 94.2343 4.14667 95.0077 5C95.7943 5.84 96.1877 7 96.1877 8.48V15L92.7877 15V8.94C92.7877 8.19333 92.5943 7.61333 92.2077 7.2C91.821 6.78667 91.301 6.58 90.6477 6.58C89.9943 6.58 89.4743 6.78667 89.0877 7.2C88.701 7.61333 88.5077 8.19333 88.5077 8.94V15H85.0877V3.84H88.5077V5.32C88.8543 4.82667 89.321 4.44 89.9077 4.16C90.4943 3.86667 91.1543 3.72 91.8877 3.72ZM104.784 12.1V15H103.044C101.804 15 100.838 14.7 100.144 14.1C99.4509 13.4867 99.1042 12.4933 99.1042 11.12V6.68L97.7442 6.68V3.84L99.1042 3.84V1.12H102.524V3.84H104.764V6.68H102.524V11.16C102.524 11.4933 102.604 11.7333 102.764 11.88C102.924 12.0267 103.191 12.1 103.564 12.1H104.784Z" fill="#3F51B5"/>
</svg>
