<svg width="95" height="14" viewBox="0 0 95 14" fill="none" xmlns="http://www.w3.org/2000/svg">
<path d="M11.952 0.364L7.578 8.824L7.578 13L4.5 13L4.5 8.824L0.126 0.364L3.618 0.364L6.066 5.656L8.496 0.364L11.952 0.364ZM17.7642 13.144C16.7802 13.144 15.8922 12.934 15.1002 12.514C14.3202 12.094 13.7022 11.494 13.2462 10.714C12.8022 9.934 12.5802 9.022 12.5802 7.978C12.5802 6.946 12.8082 6.04 13.2642 5.26C13.7202 4.468 14.3442 3.862 15.1362 3.442C15.9282 3.022 16.8162 2.812 17.8002 2.812C18.7842 2.812 19.6722 3.022 20.4642 3.442C21.2562 3.862 21.8802 4.468 22.3362 5.26C22.7922 6.04 23.0202 6.946 23.0202 7.978C23.0202 9.01 22.7862 9.922 22.3182 10.714C21.8622 11.494 21.2322 12.094 20.4282 12.514C19.6362 12.934 18.7482 13.144 17.7642 13.144ZM17.7642 10.48C18.3522 10.48 18.8502 10.264 19.2582 9.832C19.6782 9.4 19.8882 8.782 19.8882 7.978C19.8882 7.174 19.6842 6.556 19.2762 6.124C18.8802 5.692 18.3882 5.476 17.8002 5.476C17.2002 5.476 16.7022 5.692 16.3062 6.124C15.9102 6.544 15.7122 7.162 15.7122 7.978C15.7122 8.782 15.9042 9.4 16.2882 9.832C16.6842 10.264 17.1762 10.48 17.7642 10.48ZM34.5711 2.956L34.5711 13H31.4931V11.632C31.1811 12.076 30.7551 12.436 30.2151 12.712C29.6871 12.976 29.0991 13.108 28.4511 13.108C27.6831 13.108 27.0051 12.94 26.4171 12.604C25.8291 12.256 25.3731 11.758 25.0491 11.11C24.7251 10.462 24.5631 9.7 24.5631 8.824V2.956L27.6231 2.956V8.41C27.6231 9.082 27.7971 9.604 28.1451 9.976C28.4931 10.348 28.9611 10.534 29.5491 10.534C30.1491 10.534 30.6231 10.348 30.9711 9.976C31.3191 9.604 31.4931 9.082 31.4931 8.41V2.956L34.5711 2.956ZM39.86 4.63C40.22 4.078 40.67 3.646 41.21 3.334C41.75 3.01 42.35 2.848 43.01 2.848V6.106H42.164C41.396 6.106 40.82 6.274 40.436 6.61C40.052 6.934 39.86 7.51 39.86 8.338V13H36.782L36.782 2.956H39.86V4.63Z" fill="#323743"/>
<path d="M47.5592 2.83V5.386H51.6812L51.6812 7.762H47.5592V10.534L52.2212 10.534V13L44.4812 13L44.4812 0.364L52.2212 0.364V2.83H47.5592ZM58.7375 10.12L60.9155 2.956L64.1915 2.956L60.6275 13H56.8295L53.2655 2.956L56.5595 2.956L58.7375 10.12ZM74.9551 7.816C74.9551 8.104 74.9371 8.404 74.9011 8.716L67.9351 8.716C67.9831 9.34 68.1811 9.82 68.5291 10.156C68.8891 10.48 69.3271 10.642 69.8431 10.642C70.6111 10.642 71.1451 10.318 71.4451 9.67H74.7211C74.5531 10.33 74.2471 10.924 73.8031 11.452C73.3711 11.98 72.8251 12.394 72.1651 12.694C71.5051 12.994 70.7671 13.144 69.9511 13.144C68.9671 13.144 68.0911 12.934 67.3231 12.514C66.5551 12.094 65.9551 11.494 65.5231 10.714C65.0911 9.934 64.8751 9.022 64.8751 7.978C64.8751 6.934 65.0851 6.022 65.5051 5.242C65.9371 4.462 66.5371 3.862 67.3051 3.442C68.0731 3.022 68.9551 2.812 69.9511 2.812C70.9231 2.812 71.7871 3.016 72.5431 3.424C73.2991 3.832 73.8871 4.414 74.3071 5.17C74.7391 5.926 74.9551 6.808 74.9551 7.816ZM71.8051 7.006C71.8051 6.478 71.6251 6.058 71.2651 5.746C70.9051 5.434 70.4551 5.278 69.9151 5.278C69.3991 5.278 68.9611 5.428 68.6011 5.728C68.2531 6.028 68.0371 6.454 67.9531 7.006L71.8051 7.006ZM82.6989 2.848C83.8749 2.848 84.8109 3.232 85.5069 4C86.2149 4.756 86.5689 5.8 86.5689 7.132V13H83.5089V7.546C83.5089 6.874 83.3349 6.352 82.9869 5.98C82.6389 5.608 82.1709 5.422 81.5829 5.422C80.9949 5.422 80.5269 5.608 80.1789 5.98C79.8309 6.352 79.6569 6.874 79.6569 7.546V13H76.5789V2.956H79.6569V4.288C79.9689 3.844 80.3889 3.496 80.9169 3.244C81.4449 2.98 82.0389 2.848 82.6989 2.848ZM94.3058 10.39V13L92.7398 13C91.6238 13 90.7538 12.73 90.1298 12.19C89.5058 11.638 89.1938 10.744 89.1938 9.508V5.512H87.9698V2.956H89.1938V0.508H92.2718V2.956H94.2878V5.512H92.2718V9.544C92.2718 9.844 92.3438 10.06 92.4878 10.192C92.6318 10.324 92.8718 10.39 93.2078 10.39L94.3058 10.39Z" fill="#3F51B5"/>
</svg>
